<?xml version="1.0" encoding="UTF-8" standalone="no"?>
<!-- Created with Inkscape (http://www.inkscape.org/) -->

<svg
   xmlns:dc="http://purl.org/dc/elements/1.1/"
   xmlns:cc="http://creativecommons.org/ns#"
   xmlns:rdf="http://www.w3.org/1999/02/22-rdf-syntax-ns#"
   xmlns:svg="http://www.w3.org/2000/svg"
   xmlns="http://www.w3.org/2000/svg"
   xmlns:sodipodi="http://sodipodi.sourceforge.net/DTD/sodipodi-0.dtd"
   xmlns:inkscape="http://www.inkscape.org/namespaces/inkscape"
   width="64"
   height="64"
   viewBox="0 0 16.933333 16.933334"
   version="1.1"
   id="svg8"
   inkscape:version="0.92.3 (2405546, 2018-03-11)"
   sodipodi:docname="icon_blackboard.svg">
  <defs
     id="defs2" />
  <sodipodi:namedview
     id="base"
     pagecolor="#ffffff"
     bordercolor="#666666"
     borderopacity="1.0"
     inkscape:pageopacity="0.0"
     inkscape:pageshadow="2"
     inkscape:zoom="3.959798"
     inkscape:cx="70.931876"
     inkscape:cy="38.071235"
     inkscape:document-units="px"
     inkscape:current-layer="layer1"
     showgrid="false"
     units="px"
     inkscape:window-width="1366"
     inkscape:window-height="705"
     inkscape:window-x="-8"
     inkscape:window-y="-8"
     inkscape:window-maximized="1" />
  <metadata
     id="metadata5">
    <rdf:RDF>
      <cc:Work
         rdf:about="">
        <dc:format>image/svg+xml</dc:format>
        <dc:type
           rdf:resource="http://purl.org/dc/dcmitype/StillImage" />
        <dc:title></dc:title>
      </cc:Work>
    </rdf:RDF>
  </metadata>
  <g
     inkscape:label="Layer 1"
     inkscape:groupmode="layer"
     id="layer1"
     transform="translate(0,-280.06665)">
    <path
       inkscape:connector-curvature="0"
       id="path1263"
       d="m 1.7372504,295.50995 c -0.07706,-0.0129 -0.222896,-0.0548 -0.324071,-0.0928 -0.75529705,-0.28429 -1.24155875,-0.87128 -1.38942205,-1.67723 -0.021149,-0.11511 -0.027471,-1.46965 -0.02174,-4.65456 l 0.00809,-4.4922 0.071477,-0.2182 c 0.2299745,-0.70204 0.718457,-1.20729 1.38156505,-1.429 0.275929,-0.0922 0.459482,-0.0978 3.215585,-0.0981 l 2.747267,-2e-4 0.168599,-0.30832 c 0.09273,-0.16958 0.168599,-0.32568 0.168599,-0.34689 0,-0.11026 0.09454,-0.33363 0.182353,-0.43083 0.153068,-0.16943 0.282133,-0.22519 0.521246,-0.22519 0.239113,0 0.368178,0.0558 0.521247,0.22519 0.08781,0.0972 0.182346,0.32057 0.182346,0.43083 0,0.0212 0.07587,0.17731 0.168606,0.34689 l 0.168598,0.30832 2.7472666,2e-4 c 1.742949,10e-5 2.809645,0.0103 2.91791,0.0279 0.256824,0.0417 0.42898,0.10555 0.736168,0.27313 0.412526,0.22503 0.782295,0.70815 0.950055,1.24127 l 0.06387,0.20296 0.0083,4.49219 c 0.006,3.18616 -3.12e-4,4.53941 -0.02139,4.65457 -0.152448,0.83099 -0.652928,1.41506 -1.459469,1.70324 l -0.231764,0.0828 -6.6706396,0.004 c -3.685784,0.002 -6.733332,-0.007 -6.810758,-0.0199 z m 13.4193786,-1.46752 c 0.07008,-0.0419 0.163932,-0.11792 0.208565,-0.16875 0.173745,-0.19789 0.164653,0.0606 0.164653,-4.68009 0,-4.79447 0.01217,-4.48316 -0.18419,-4.70102 -0.055,-0.061 -0.160843,-0.13929 -0.235262,-0.17402 l -0.135303,-0.0632 H 8.4668194 1.9585464 l -0.135303,0.0632 c -0.07442,0.0347 -0.180286,0.11303 -0.235257,0.17402 -0.196388,0.21786 -0.184195,-0.0935 -0.184195,4.70162 0,4.67982 -0.0073,4.45167 0.148709,4.6562 0.07604,0.0997 0.2485,0.22113 0.364196,0.25644 0.03793,0.0116 3.003731,0.019 6.590714,0.0165 l 6.5218016,-0.005 z m -13.1722476,-0.49073 -0.06642,-0.0664 v -4.29169 -4.2917 l 0.06642,-0.0664 0.06643,-0.0664 h 6.416012 6.4160176 l 0.06642,0.0664 0.06642,0.0664 v 4.2917 4.29169 l -0.06642,0.0664 c -0.06276,0.0628 -0.08344,0.0664 -0.375245,0.0664 h -0.308829 l 0.01353,-0.1891 c 0.01684,-0.23525 -0.02777,-0.40398 -0.133626,-0.50542 l -0.08007,-0.0767 -1.060411,-0.008 c -0.583218,-0.005 -1.098522,-0.001 -1.145098,0.007 -0.175547,0.0321 -0.316232,0.38209 -0.259843,0.64647 l 0.02676,0.12549 H 6.8386154 2.0507944 Z"
       style="fill:#9d9d9d;fill-opacity:1;stroke-width:0.02706141" />
  </g>
</svg>
